# xmcd CD database file
#
# Track frame offsets:
#	150
#	18833
#	35420
#	51675
#	66944
#	83295
#	103293
#	118123
#	133854
#	149678
#	163409
#	180179
#	192506
#	203579
#	215344
#
# Disc length: 3056 seconds
#
# Revision: 1
# Processed by: cddbd v1.5.1PL0 Copyright (c) Steve Scherf et al.
# Submitted via: CDex 1.50Beta7
#
DISCID=e00bee0f
DTITLE=Gang Marcela - Zlote Przeboje - Platynowa Kolekcja
DYEAR=2002
DGENRE=Country
TTITLE0=Kto jesli nie Ty
TTITLE1=Zaswiecila moja gwiazda
TTITLE2=Znajdziemy posrod trosk
TTITLE3=Ona w sobie cos ma
TTITLE4=Dziewczyno obudz sie
TTITLE5=Gdybys tak dzis
TTITLE6=Sen jak dym
TTITLE7=Kolysanka dla malego
TTITLE8=Mezczyzna i lzy
TTITLE9=Bym drogi nie pomylil
TTITLE10=Komu z nas teczowy luk
TTITLE11=Hej przyjacielu - dobre slowo
TTITLE12=Ojciec zyl tak jak chcial
TTITLE13=Lubie miec luz
TTITLE14=Byle do przodu
EXTD=YEAR: 2002
EXTT0=
EXTT1=
EXTT2=
EXTT3=
EXTT4=
EXTT5=
EXTT6=
EXTT7=
EXTT8=
EXTT9=
EXTT10=
EXTT11=
EXTT12=
EXTT13=
EXTT14=
PLAYORDER=
